P2
20 20
1
000 001 000 001 000 001 000 001 000 001 000 001 000 001 000 001 000 001 000 001 
001 000 001 000 001 000 001 000 001 000 001 000 001 000 001 000 001 000 001 000 
000 001 000 001 000 001 000 001 000 001 000 001 000 001 000 001 000 001 000 001 
001 000 001 000 001 000 001 000 001 000 001 000 001 000 001 000 001 000 001 000 
000 001 000 001 000 001 000 001 000 001 000 001 000 001 000 001 000 001 000 001 
001 000 001 000 001 000 001 000 001 000 001 000 001 000 001 000 001 000 001 000 
000 001 000 001 000 001 000 001 000 001 000 001 000 001 000 001 000 001 000 001 
001 000 001 000 001 000 001 000 001 000 001 000 001 000 001 000 001 000 001 000 
000 001 000 001 000 001 000 001 000 001 000 001 000 001 000 001 000 001 000 001 
001 000 001 000 001 000 001 000 001 000 001 000 001 000 001 000 001 000 001 000 
000 001 000 001 000 001 000 001 000 001 000 001 000 001 000 001 000 001 000 001 
001 000 001 000 001 000 001 000 001 000 001 000 001 000 001 000 001 000 001 000 
000 001 000 001 000 001 000 001 000 001 000 001 000 001 000 001 000 001 000 001 
001 000 001 000 001 000 001 000 001 000 001 000 001 000 001 000 001 000 001 000 
000 001 000 001 000 001 000 001 000 001 000 001 000 001 000 001 000 001 000 001 
001 000 001 000 001 000 001 000 001 000 001 000 001 000 001 000 001 000 001 000 
000 001 000 001 000 001 000 001 000 001 000 001 000 001 000 001 000 001 000 001 
001 000 001 000 001 000 001 000 001 000 001 000 001 000 001 000 001 000 001 000 
000 001 000 001 000 001 000 001 000 001 000 001 000 001 000 001 000 001 000 001 
001 000 001 000 001 000 001 000 001 000 001 000 001 000 001 000 001 000 001 000 
