P2
20 20
41
041 041 037 041 007 007 041 034 041 041 041 041 041 041 019 019 041 027 041 005 
015 015 041 041 007 041 041 041 041 041 041 041 041 041 041 041 041 041 041 005 
015 041 038 041 007 007 007 041 006 041 001 001 001 041 041 041 041 005 005 005 
041 039 041 041 041 041 041 041 006 006 041 001 001 001 041 041 029 041 005 041 
016 041 012 012 041 041 041 041 006 041 041 001 001 041 041 041 041 028 041 041 
016 016 041 012 012 041 041 041 006 006 041 041 001 001 041 041 030 041 025 041 
041 041 041 041 041 004 004 041 041 041 041 001 001 001 041 009 041 003 041 023 
041 022 041 041 041 004 004 004 004 041 041 001 001 041 041 009 041 003 003 041 
041 022 041 020 020 041 004 041 041 014 014 041 001 041 041 009 041 003 041 041 
041 041 041 041 041 041 041 011 041 014 041 013 041 041 041 009 041 003 003 003 
018 041 008 008 041 041 011 011 041 041 013 013 041 041 033 041 041 041 041 003 
018 041 041 008 041 041 041 011 041 000 041 041 041 041 041 041 041 041 003 003 
018 041 008 008 041 000 000 041 000 000 000 041 000 041 041 041 031 041 041 003 
041 041 041 041 041 041 000 000 000 000 000 000 000 000 041 032 041 041 041 041 
041 041 021 041 041 041 041 000 041 041 000 041 000 000 041 041 041 041 026 041 
040 041 021 041 041 041 041 000 000 041 041 000 000 041 041 041 002 002 041 024 
041 041 041 041 041 041 000 000 000 041 000 000 000 041 002 041 002 002 002 041 
041 017 041 036 041 041 000 000 000 000 041 041 000 041 002 002 002 002 041 041 
041 017 041 041 035 041 000 041 000 041 010 041 041 041 041 002 002 041 041 041 
041 017 041 041 041 000 000 000 000 041 010 010 010 041 041 002 041 041 041 041 
